<?xml version="1.0" encoding="utf-8"?>
<!-- Generator: Adobe Illustrator 23.1.0, SVG Export Plug-In . SVG Version: 6.00 Build 0)  -->
<svg version="1.1" id="Слой_1" xmlns="http://www.w3.org/2000/svg" xmlns:xlink="http://www.w3.org/1999/xlink" x="0px" y="0px"
	 viewBox="0 0 46 46" style="enable-background:new 0 0 46 46;" xml:space="preserve">
<style type="text/css">
	.st0{clip-path:url(#SVGID_2_);fill:none;stroke:url(#SVGID_3_);stroke-width:2;}
	.st1{clip-path:url(#SVGID_2_);fill-rule:evenodd;clip-rule:evenodd;fill:url(#SVGID_4_);}
</style>
<g>
	<defs>
		<rect id="SVGID_1_" width="46" height="46"/>
	</defs>
	<clipPath id="SVGID_2_">
		<use xlink:href="#SVGID_1_"  style="overflow:visible;"/>
	</clipPath>
	<linearGradient id="SVGID_3_" gradientUnits="userSpaceOnUse" x1="23" y1="0" x2="23" y2="46">
		<stop  offset="0" style="stop-color:#FABCBC"/>
		<stop  offset="1" style="stop-color:#EE868D"/>
	</linearGradient>
	<circle class="st0" cx="23" cy="23" r="22"/>
	<linearGradient id="SVGID_4_" gradientUnits="userSpaceOnUse" x1="23.4796" y1="17.9428" x2="23.4796" y2="28.0504">
		<stop  offset="0" style="stop-color:#FABCBC"/>
		<stop  offset="1" style="stop-color:#EE868D"/>
	</linearGradient>
	<path class="st1" d="M29.55,18.37c-0.56-0.56-1.46-0.57-2.02-0.02c-0.01,0-0.01,0.01-0.02,0.02l-6.2,6.2l-1.87-1.87
		c-0.56-0.56-1.48-0.56-2.04,0c-0.56,0.56-0.56,1.48,0,2.04l2.89,2.89c0.57,0.56,1.48,0.56,2.04,0l7.22-7.22
		C30.12,19.85,30.12,18.94,29.55,18.37C29.56,18.37,29.56,18.37,29.55,18.37"/>
</g>
</svg>
