<svg xmlns="http://www.w3.org/2000/svg" xmlns:xlink="http://www.w3.org/1999/xlink" viewBox="0 0 512 512"><defs><style>.cls-1{fill:none;}.cls-2{clip-path:url(#clip-path);}</style><clipPath id="clip-path"><rect class="cls-1" width="512" height="512"/></clipPath></defs><title>calendar-icon</title><g><path d="M386,190a20,20,0,1,1-20,20,20,20,0,0,1,20-20"/><path d="M432,40H406V20a20,20,0,0,0-40,0V40H275V20a20,20,0,0,0-40,0V40H145V20a20,20,0,0,0-40,0V40H80A80.09,80.09,0,0,0,0,120V432a80.09,80.09,0,0,0,80,80H233a20,20,0,0,0,0-40H80a40,40,0,0,1-40-40V120A40,40,0,0,1,80,80h25v20a20,20,0,0,0,40,0V80h90v20a20,20,0,0,0,40,0V80h91v20a20,20,0,0,0,40,0V80h26a40,40,0,0,1,40,40V234a20,20,0,0,0,40,0V120a80.09,80.09,0,0,0-80-80"/><path d="M391,270A121,121,0,1,0,512,391,121.14,121.14,0,0,0,391,270m0,202a81,81,0,1,1,81-81,81.1,81.1,0,0,1-81,81"/><path d="M420,371h-9V350a20,20,0,0,0-40,0v41a20,20,0,0,0,20,20h29a20,20,0,0,0,0-40"/><path d="M299,190a20,20,0,1,1-20,20,20,20,0,0,1,20-20"/><path d="M212,277a20,20,0,1,1-20,20,20,20,0,0,1,20-20"/><path d="M125,190a20,20,0,1,1-20,20,20,20,0,0,1,20-20"/><path d="M125,277a20,20,0,1,1-20,20,20,20,0,0,1,20-20"/><path d="M125,364a20,20,0,1,1-20,20,20,20,0,0,1,20-20"/><path d="M212,364a20,20,0,1,1-20,20,20,20,0,0,1,20-20"/><path d="M212,190a20,20,0,1,1-20,20,20,20,0,0,1,20-20"/></g></svg>