<svg xmlns="http://www.w3.org/2000/svg" viewBox="0 0 512 512"><linearGradient id="a" gradientUnits="userSpaceOnUse" x1="386" y1="-206" x2="386" y2="485.608"><stop offset="0" stop-color="#fbd2d2"/><stop offset="1" stop-color="#ee878e"/></linearGradient><path d="M386 190c11.05 0 20 8.95 20 20s-8.95 20-20 20-20-8.95-20-20 8.95-20 20-20" fill="url(#a)"/><linearGradient id="b" gradientUnits="userSpaceOnUse" x1="256" y1="-206" x2="256" y2="485.608"><stop offset="0" stop-color="#fff"/><stop offset="1" stop-color="#ee878e"/></linearGradient><path d="M432 40h-26V20c0-11.05-8.95-20-20-20s-20 8.95-20 20v20h-91V20c0-11.05-8.95-20-20-20s-20 8.95-20 20v20h-90V20c0-11.05-8.95-20-20-20s-20 8.95-20 20v20H80C35.89 40 0 75.89 0 120v312c0 44.11 35.89 80 80 80h153c11.05 0 20-8.95 20-20s-8.95-20-20-20H80c-22.06 0-40-17.94-40-40V120c0-22.06 17.94-40 40-40h25v20c0 11.05 8.95 20 20 20s20-8.95 20-20V80h90v20c0 11.05 8.95 20 20 20s20-8.95 20-20V80h91v20c0 11.05 8.95 20 20 20s20-8.95 20-20V80h26c22.06 0 40 17.94 40 40v114c0 11.05 8.95 20 20 20s20-8.95 20-20V120c0-44.11-35.89-80-80-80" fill="url(#b)"/><linearGradient id="c" gradientUnits="userSpaceOnUse" x1="391" y1="-206" x2="391" y2="485.608"><stop offset="0" stop-color="#fff"/><stop offset="1" stop-color="#ee878e"/></linearGradient><path d="M391 270c-66.72 0-121 54.28-121 121s54.28 121 121 121 121-54.28 121-121-54.28-121-121-121m0 202c-44.66 0-81-36.34-81-81s36.34-81 81-81 81 36.34 81 81-36.34 81-81 81" fill="url(#c)"/><linearGradient id="d" gradientUnits="userSpaceOnUse" x1="405.5" y1="-206" x2="405.5" y2="485.608"><stop offset="0" stop-color="#fff"/><stop offset="1" stop-color="#ee878e"/></linearGradient><path d="M420 371h-9v-21c0-11.05-8.95-20-20-20s-20 8.95-20 20v41c0 11.05 8.95 20 20 20h29c11.05 0 20-8.95 20-20s-8.95-20-20-20" fill="url(#d)"/><linearGradient id="e" gradientUnits="userSpaceOnUse" x1="299" y1="-206" x2="299" y2="485.608"><stop offset="0" stop-color="#fff"/><stop offset="1" stop-color="#ee878e"/></linearGradient><path d="M299 190c11.05 0 20 8.95 20 20s-8.95 20-20 20-20-8.95-20-20 8.95-20 20-20" fill="url(#e)"/><linearGradient id="f" gradientUnits="userSpaceOnUse" x1="212" y1="-206" x2="212" y2="485.608"><stop offset="0" stop-color="#fff"/><stop offset="1" stop-color="#ee878e"/></linearGradient><path d="M212 277c11.05 0 20 8.95 20 20s-8.95 20-20 20-20-8.95-20-20 8.95-20 20-20" fill="url(#f)"/><linearGradient id="g" gradientUnits="userSpaceOnUse" x1="125" y1="190" x2="125" y2="230"><stop offset="0" stop-color="#fff"/><stop offset="1" stop-color="#ee878e"/></linearGradient><path d="M125 190c11.05 0 20 8.95 20 20s-8.95 20-20 20-20-8.95-20-20 8.95-20 20-20" fill="url(#g)"/><linearGradient id="h" gradientUnits="userSpaceOnUse" x1="125" y1="-206" x2="125" y2="485.608"><stop offset="0" stop-color="#fff"/><stop offset="1" stop-color="#ee878e"/></linearGradient><path d="M125 277c11.05 0 20 8.95 20 20s-8.95 20-20 20-20-8.95-20-20 8.95-20 20-20" fill="url(#h)"/><linearGradient id="i" gradientUnits="userSpaceOnUse" x1="125" y1="-206" x2="125" y2="485.608"><stop offset="0" stop-color="#fff"/><stop offset="1" stop-color="#ee878e"/></linearGradient><path d="M125 364c11.05 0 20 8.95 20 20s-8.95 20-20 20-20-8.95-20-20 8.95-20 20-20" fill="url(#i)"/><linearGradient id="j" gradientUnits="userSpaceOnUse" x1="212" y1="-206" x2="212" y2="485.608"><stop offset="0" stop-color="#fff"/><stop offset="1" stop-color="#ee878e"/></linearGradient><path d="M212 364c11.05 0 20 8.95 20 20s-8.95 20-20 20-20-8.95-20-20 8.95-20 20-20" fill="url(#j)"/><linearGradient id="k" gradientUnits="userSpaceOnUse" x1="212" y1="-206" x2="212" y2="485.608"><stop offset="0" stop-color="#fff"/><stop offset="1" stop-color="#ee878e"/></linearGradient><path d="M212 190c11.05 0 20 8.95 20 20s-8.95 20-20 20-20-8.95-20-20 8.95-20 20-20" fill="url(#k)"/></svg>