<svg xmlns="http://www.w3.org/2000/svg" xmlns:xlink="http://www.w3.org/1999/xlink" viewBox="0 0 46 46"><defs><path id="a" d="M0 0h46v46H0z"/></defs><clipPath id="b"><use xlink:href="#a" overflow="visible"/></clipPath><linearGradient id="c" gradientUnits="userSpaceOnUse" x1="23" y1="0" x2="23" y2="46"><stop offset="0" stop-color="#fabcbc"/><stop offset="1" stop-color="#ee868d"/></linearGradient><circle cx="23" cy="23" r="22" clip-path="url(#b)" fill="none" stroke="url(#c)" stroke-width="2"/><linearGradient id="d" gradientUnits="userSpaceOnUse" x1="23.48" y1="17.943" x2="23.48" y2="28.05"><stop offset="0" stop-color="#fabcbc"/><stop offset="1" stop-color="#ee868d"/></linearGradient><path d="M29.55 18.37c-.56-.56-1.46-.57-2.02-.02-.01 0-.01.01-.02.02l-6.2 6.2-1.87-1.87c-.56-.56-1.48-.56-2.04 0s-.56 1.48 0 2.04l2.89 2.89c.57.56 1.48.56 2.04 0l7.22-7.22c.57-.56.57-1.47 0-2.04.01 0 .01 0 0 0" clip-path="url(#b)" fill-rule="evenodd" clip-rule="evenodd" fill="url(#d)"/></svg>